<?xml version="1.0" standalone="no"?>
<!DOCTYPE svg PUBLIC "-//W3C//DTD SVG 20010904//EN"
 "http://www.w3.org/TR/2001/REC-SVG-20010904/DTD/svg10.dtd">
<svg version="1.0" xmlns="http://www.w3.org/2000/svg"
 width="1890.000000pt" height="1417.000000pt" viewBox="0 0 1890.000000 1417.000000"
 preserveAspectRatio="xMidYMid meet">
<metadata>
Created by potrace 1.16, written by Peter Selinger 2001-2019
</metadata>
<g transform="translate(0.000000,1417.000000) scale(0.100000,-0.100000)"
fill="#000000" stroke="none">
<path d="M6986 9671 c-10 -17 -49 -173 -75 -301 -30 -148 -59 -341 -131 -856
-61 -446 -120 -726 -196 -945 -20 -57 -103 -243 -186 -414 -82 -170 -177 -373
-210 -450 -65 -152 -155 -414 -183 -536 -17 -71 -21 -78 -53 -93 -44 -21 -46
-19 -66 94 -30 164 -39 291 -33 480 7 212 18 301 87 710 62 370 76 478 90 664
l11 149 -43 44 c-43 44 -43 44 -98 37 -170 -20 -290 -74 -391 -175 l-66 -67
-54 15 c-145 39 -359 25 -508 -35 -93 -37 -227 -130 -299 -207 -283 -302 -363
-731 -211 -1126 l29 -76 172 -21 c95 -12 173 -20 174 -19 1 1 124 226 272 500
l270 499 183 163 184 163 14 -47 c11 -34 15 -104 15 -266 0 -211 -2 -233 -47
-535 -25 -173 -52 -376 -58 -450 -20 -228 4 -478 57 -611 11 -25 55 -101 99
-167 l80 -122 97 0 97 0 34 43 c94 116 132 210 208 519 60 240 102 372 139
435 11 19 20 51 21 71 l1 37 16 -35 c12 -27 17 -89 23 -275 8 -253 14 -296 55
-376 41 -82 90 -128 189 -176 l90 -44 33 38 c66 75 77 106 77 228 0 61 -4 131
-8 156 -9 46 -8 47 22 57 16 6 76 18 133 27 339 53 381 69 496 189 187 195
351 533 414 850 28 143 30 356 5 461 -34 139 -104 248 -186 289 -53 27 -73 32
-170 46 l-71 10 -308 -205 c-353 -236 -320 -231 -321 -45 -2 273 78 622 269
1183 l81 237 -3 122 -3 122 -128 22 c-70 11 -129 18 -131 15z m579 -1712 c159
-190 163 -618 7 -942 -114 -238 -243 -335 -497 -372 -73 -11 -83 -10 -122 8
-47 23 -47 22 -64 185 -34 331 88 650 350 912 76 76 275 240 291 240 4 0 20
-14 35 -31z m-2362 -107 l69 -17 -263 -324 c-311 -383 -324 -394 -270 -233 40
120 115 268 186 367 69 96 183 225 199 225 6 0 42 -8 79 -18z"/>
<path d="M2838 9071 c-132 -142 -208 -378 -239 -739 -17 -208 -6 -756 25
-1207 14 -203 26 -427 26 -497 l0 -128 36 -15 c113 -47 399 -61 624 -30 244
34 507 101 682 174 54 23 114 41 133 41 l35 0 0 129 0 129 -67 8 c-104 11
-337 -2 -445 -25 -53 -12 -159 -41 -236 -66 -115 -37 -153 -45 -216 -45 l-76
0 0 58 c0 31 -9 514 -20 1072 -11 558 -20 1039 -20 1067 l0 53 -80 40 c-44 22
-86 40 -94 40 -7 0 -38 -26 -68 -59z"/>
<path d="M11247 8348 c-40 -44 -101 -104 -136 -133 -62 -52 -167 -115 -190
-115 -7 0 -23 24 -35 53 -33 73 -48 83 -146 96 l-85 12 -59 -62 c-170 -180
-288 -471 -312 -771 l-7 -86 -241 -60 c-132 -34 -242 -60 -243 -59 -1 2 20 81
48 177 74 262 93 372 93 525 0 133 -14 215 -38 215 -7 0 -57 7 -112 15 -54 8
-200 19 -324 25 -124 6 -272 17 -329 24 l-105 14 -115 -75 c-373 -243 -581
-484 -663 -768 -20 -69 -23 -103 -23 -245 0 -91 3 -176 7 -190 6 -22 30 -33
174 -88 150 -55 170 -61 188 -48 48 31 196 189 354 378 93 112 214 246 268
298 116 111 224 188 235 168 50 -90 59 -351 17 -508 -55 -202 -139 -369 -408
-805 -269 -435 -381 -647 -474 -899 -77 -205 -131 -472 -138 -680 l-3 -90 167
-147 168 -146 108 22 c124 25 143 35 234 134 163 176 243 431 323 1021 60 439
89 601 146 790 97 329 276 577 510 709 96 54 89 82 89 -339 l0 -370 43 -65
c37 -58 45 -65 71 -63 26 3 37 15 79 83 132 218 295 585 561 1260 l173 440 39
22 40 22 60 -162 60 -162 47 -25 47 -25 127 127 127 127 -43 193 c-39 174 -47
196 -78 234 -40 50 -45 52 -146 69 l-78 12 -72 -79z m-1925 -414 l31 -16 -39
-38 c-31 -29 -305 -286 -607 -569 l-38 -36 26 70 c53 143 140 258 278 369 131
106 301 234 310 235 4 1 22 -6 39 -15z m11 -1658 c29 -73 35 -267 13 -409 -36
-224 -126 -524 -288 -956 l-73 -194 -115 -39 c-63 -21 -118 -38 -121 -38 -13
0 -50 112 -71 210 -52 245 24 559 217 897 37 65 121 201 188 303 66 102 138
215 160 252 39 64 42 66 55 46 8 -11 24 -44 35 -72z"/>
<path d="M12561 8289 c-378 -74 -645 -398 -739 -894 -13 -68 -17 -146 -17
-315 0 -221 5 -269 41 -432 l15 -66 107 -89 c58 -48 115 -95 127 -104 19 -15
29 -16 110 -3 258 38 415 136 625 389 166 200 238 280 294 327 32 27 60 47 62
46 1 -2 7 -63 13 -135 13 -156 32 -242 76 -340 91 -199 277 -282 504 -224 266
67 549 301 681 561 34 66 47 82 116 133 52 38 80 53 83 45 2 -7 30 -98 61
-203 l57 -190 110 -3 110 -3 98 103 c179 187 298 376 343 541 l18 68 99 80
100 79 14 -43 c11 -31 15 -93 15 -232 0 -158 -5 -231 -32 -435 -51 -385 -45
-588 24 -740 29 -66 85 -123 142 -147 47 -20 136 -19 205 1 l55 16 22 68 c93
283 285 752 412 1005 l70 140 -47 46 -46 46 -46 -50 c-165 -179 -313 -430
-389 -663 -25 -77 -30 -83 -80 -117 -30 -19 -56 -35 -58 -35 -12 0 19 238 71
555 45 268 47 289 48 485 l0 205 -39 123 -40 123 -40 -6 c-81 -13 -188 -46
-254 -79 -138 -70 -228 -153 -414 -383 -56 -70 -135 -162 -175 -203 l-72 -75
0 50 c0 28 8 212 18 410 11 198 18 362 16 364 -5 5 -176 40 -197 41 -23 0 -35
-24 -130 -264 -233 -586 -334 -775 -512 -951 -102 -102 -205 -163 -317 -190
-67 -15 -225 -20 -246 -7 -8 5 -19 93 -33 266 -11 143 -19 261 -17 263 2 2 96
22 208 44 112 23 222 50 244 61 116 59 236 170 299 278 71 121 76 139 76 290
0 135 0 138 -29 177 -46 63 -109 111 -210 160 -89 43 -96 45 -133 34 -176 -53
-501 -353 -1183 -1092 -164 -178 -342 -368 -394 -421 l-95 -98 -81 0 -82 0
-38 213 c-21 116 -40 217 -42 223 -6 17 165 128 286 186 312 148 388 196 473
302 79 98 113 176 132 301 10 61 20 118 22 127 4 13 -39 47 -183 143 -199 132
-199 132 -292 114z m89 -409 c0 -84 -4 -129 -14 -148 -28 -54 -123 -131 -217
-177 -78 -38 -102 -45 -152 -45 l-59 0 7 33 c22 103 83 210 215 375 l65 82 78
0 77 0 0 -120z m1482 58 l19 -57 -35 -68 c-73 -138 -164 -215 -322 -272 -113
-41 -129 -40 -153 7 l-19 37 166 208 166 208 80 -3 79 -3 19 -57z"/>
</g>
</svg>
